<svg width="37" height="27" fill="none" xmlns="http://www.w3.org/2000/svg"><path d="M35.604 13.392l-17.864-1.54a.419.419 0 00-.34.122L4.365 24.304a.63.63 0 00-.185.384L22.678 27a.388.388 0 00.341-.123l13.003-13.3a.636.636 0 00-.418-.185z" fill="url(#paint0_linear)"/><path d="M33.545 7.444L15.681 5.902a.42.42 0 00-.34.124L2.307 18.355a.63.63 0 00-.186.385L20.62 21.05a.388.388 0 00.34-.123l13.004-13.3a.636.636 0 00-.419-.184z" fill="url(#paint1_linear)"/><path d="M31.456 1.541L13.576 0a.42.42 0 00-.34.123L.185 12.33A.63.63 0 000 12.76l18.499 2.312a.388.388 0 00.34-.123l13.004-13.3a.637.637 0 00-.387-.108z" fill="url(#paint2_linear)"/><defs><linearGradient id="paint0_linear" x1="17.577" y1="11.939" x2="22.828" y2="26.992" gradientUnits="userSpaceOnUse"><stop stop-color="#fff"/><stop offset=".07" stop-color="#F5FAFF"/><stop offset=".27" stop-color="#DEF"/><stop offset=".48" stop-color="#CCE5FF"/><stop offset=".71" stop-color="#C2E0FF"/><stop offset="1" stop-color="#BFDEFF"/></linearGradient><linearGradient id="paint1_linear" x1="15.479" y1="5.976" x2="20.73" y2="21.029" gradientUnits="userSpaceOnUse"><stop stop-color="#BFDEFF"/><stop offset=".06" stop-color="#A8D2FF"/><stop offset=".17" stop-color="#88C1FF"/><stop offset=".28" stop-color="#6EB4FF"/><stop offset=".41" stop-color="#59A9FF"/><stop offset=".55" stop-color="#4BA2FF"/><stop offset=".72" stop-color="#439DFF"/><stop offset="1" stop-color="#409CFF"/></linearGradient><linearGradient id="paint2_linear" x1="16.474" y1=".236" x2="15.323" y2="14.832" gradientUnits="userSpaceOnUse"><stop stop-color="#409CFF"/><stop offset=".24" stop-color="#258EFF"/><stop offset=".5" stop-color="#1184FF"/><stop offset=".75" stop-color="#047DFF"/><stop offset="1" stop-color="#007BFF"/></linearGradient></defs></svg>